<svg width="77" height="366" viewBox="0 0 77 366" fill="none" xmlns="http://www.w3.org/2000/svg">
<path d="M28 38.5004H48.9999C51.2091 38.5004 52.9999 36.7096 52.9999 34.5004V19.5005L38.4999 9.50049L24 19.5005V34.5004C24 36.7096 25.7909 38.5004 28 38.5004Z" stroke="#343447" stroke-width="1.5" stroke-linecap="round" stroke-linejoin="round"/>
<path d="M33.999 31.4985C33.999 29.2893 35.79 27.4985 37.999 27.4985H38.999C41.2082 27.4985 42.999 29.2893 42.999 31.4985V38.4985H33.999V31.4985Z" stroke="#343447" stroke-width="1.5" stroke-linecap="round" stroke-linejoin="round"/>
<path d="M26.564 56.64C26.8093 56.64 27.0067 56.72 27.156 56.88C27.3053 57.0293 27.38 57.2267 27.38 57.472V67.248C27.38 67.4933 27.3053 67.696 27.156 67.856C27.0067 68.0053 26.8093 68.08 26.564 68.08C26.3187 68.08 26.1213 68.0053 25.972 67.856C25.8227 67.7067 25.748 67.504 25.748 67.248V62.944H19.444V67.248C19.444 67.4933 19.3693 67.696 19.22 67.856C19.0707 68.0053 18.8733 68.08 18.628 68.08C18.3827 68.08 18.1853 68.0053 18.036 67.856C17.8867 67.7067 17.812 67.504 17.812 67.248V57.472C17.812 57.2267 17.8867 57.0293 18.036 56.88C18.1853 56.72 18.3827 56.64 18.628 56.64C18.8733 56.64 19.0707 56.72 19.22 56.88C19.3693 57.0293 19.444 57.2267 19.444 57.472V61.6H25.748V57.472C25.748 57.2267 25.8227 57.0293 25.972 56.88C26.1213 56.72 26.3187 56.64 26.564 56.64ZM33.1995 68.112C32.4315 68.112 31.7542 67.9467 31.1675 67.616C30.5915 67.2853 30.1435 66.816 29.8235 66.208C29.5142 65.5893 29.3595 64.8747 29.3595 64.064C29.3595 63.2427 29.5142 62.528 29.8235 61.92C30.1435 61.3013 30.5915 60.8267 31.1675 60.496C31.7542 60.1653 32.4315 60 33.1995 60C33.9675 60 34.6395 60.1653 35.2155 60.496C35.8022 60.8267 36.2502 61.3013 36.5595 61.92C36.8795 62.528 37.0395 63.2427 37.0395 64.064C37.0395 64.8747 36.8795 65.5893 36.5595 66.208C36.2502 66.816 35.8022 67.2853 35.2155 67.616C34.6395 67.9467 33.9675 68.112 33.1995 68.112ZM33.1995 66.832C33.9142 66.832 34.4582 66.5973 34.8315 66.128C35.2155 65.6587 35.4075 64.9707 35.4075 64.064C35.4075 63.168 35.2155 62.4853 34.8315 62.016C34.4475 61.536 33.9035 61.296 33.1995 61.296C32.4955 61.296 31.9515 61.536 31.5675 62.016C31.1835 62.4853 30.9915 63.168 30.9915 64.064C30.9915 64.9707 31.1782 65.6587 31.5515 66.128C31.9355 66.5973 32.4848 66.832 33.1995 66.832ZM47.7988 60C49.5481 60 50.4228 61.0507 50.4228 63.152V67.312C50.4228 67.5573 50.3481 67.7493 50.1988 67.888C50.0494 68.016 49.8521 68.08 49.6068 68.08C49.3721 68.08 49.1801 68.016 49.0308 67.888C48.8814 67.7493 48.8068 67.5573 48.8068 67.312V63.168C48.8068 62.5173 48.6894 62.048 48.4548 61.76C48.2201 61.4613 47.8521 61.312 47.3508 61.312C46.7641 61.312 46.3001 61.5147 45.9588 61.92C45.6174 62.3147 45.4468 62.8587 45.4468 63.552V67.312C45.4468 67.5573 45.3721 67.7493 45.2228 67.888C45.0734 68.016 44.8761 68.08 44.6308 68.08C44.3961 68.08 44.2041 68.016 44.0548 67.888C43.9054 67.7493 43.8308 67.5573 43.8308 67.312V63.168C43.8308 62.5173 43.7134 62.048 43.4788 61.76C43.2441 61.4613 42.8761 61.312 42.3748 61.312C41.7881 61.312 41.3188 61.5147 40.9668 61.92C40.6254 62.3147 40.4548 62.8587 40.4548 63.552V67.312C40.4548 67.5573 40.3801 67.7493 40.2308 67.888C40.0814 68.016 39.8894 68.08 39.6548 68.08C39.4201 68.08 39.2228 68.016 39.0628 67.888C38.9134 67.7493 38.8388 67.5573 38.8388 67.312V60.8C38.8388 60.5653 38.9188 60.3787 39.0788 60.24C39.2388 60.1013 39.4308 60.032 39.6548 60.032C39.8788 60.032 40.0601 60.1013 40.1988 60.24C40.3481 60.368 40.4228 60.5493 40.4228 60.784V61.376C40.6574 60.928 40.9828 60.5867 41.3988 60.352C41.8148 60.1173 42.2948 60 42.8388 60C43.4361 60 43.9268 60.1227 44.3108 60.368C44.7054 60.6133 44.9988 60.992 45.1908 61.504C45.4254 61.0453 45.7721 60.6827 46.2308 60.416C46.6894 60.1387 47.2121 60 47.7988 60ZM58.7476 66.032C58.897 66.032 59.0196 66.0907 59.1156 66.208C59.2116 66.3253 59.2596 66.4747 59.2596 66.656C59.2596 66.9653 59.0676 67.2267 58.6836 67.44C58.3103 67.6533 57.8996 67.8187 57.4516 67.936C57.0143 68.0533 56.593 68.112 56.1876 68.112C54.9503 68.112 53.9743 67.7547 53.2596 67.04C52.545 66.3147 52.1876 65.328 52.1876 64.08C52.1876 63.28 52.3423 62.5707 52.6516 61.952C52.9716 61.3333 53.4143 60.8533 53.9796 60.512C54.5556 60.1707 55.2063 60 55.9316 60C56.977 60 57.8036 60.336 58.4116 61.008C59.0196 61.68 59.3236 62.5867 59.3236 63.728C59.3236 64.1547 59.1316 64.368 58.7476 64.368H53.8036C53.9103 66.0213 54.705 66.848 56.1876 66.848C56.5823 66.848 56.9236 66.7947 57.2116 66.688C57.4996 66.5813 57.8036 66.4427 58.1236 66.272C58.1556 66.2507 58.241 66.208 58.3796 66.144C58.529 66.0693 58.6516 66.032 58.7476 66.032ZM55.9636 61.184C55.345 61.184 54.849 61.3813 54.4756 61.776C54.1023 62.1707 53.8783 62.7253 53.8036 63.44H57.9316C57.8996 62.7147 57.713 62.16 57.3716 61.776C57.041 61.3813 56.5716 61.184 55.9636 61.184Z" fill="#343447"/>
<path d="M26.0638 184.5H40.937C42.066 184.5 42.9544 183.563 42.7294 182.457C42.1084 179.402 40.0798 174 33.5004 174C26.921 174 24.8925 179.402 24.2714 182.457C24.0464 183.563 24.9348 184.5 26.0638 184.5Z" stroke="#DA0175" stroke-width="1.5" stroke-linecap="round" stroke-linejoin="round"/>
<path d="M46 174C50.1576 174 51.8604 178.296 52.5478 181.392C52.919 183.064 51.5666 184.5 49.8538 184.5H48" stroke="#DA0175" stroke-width="1.5" stroke-linecap="round" stroke-linejoin="round"/>
<path d="M33.5 166.5C36.5376 166.5 39 164.038 39 161C39 157.962 36.5376 155.5 33.5 155.5C30.4624 155.5 28 157.962 28 161C28 164.038 30.4624 166.5 33.5 166.5Z" stroke="#DA0175" stroke-width="1.5" stroke-linecap="round" stroke-linejoin="round"/>
<path d="M44 166.5C47.0376 166.5 49 164.038 49 161C49 157.962 47.0376 155.5 44 155.5" stroke="#DA0175" stroke-width="1.5" stroke-linecap="round" stroke-linejoin="round"/>
<path d="M15.224 214.128C14.1467 214.128 13.208 213.899 12.408 213.44C11.608 212.971 10.9947 212.304 10.568 211.44C10.1413 210.565 9.928 209.536 9.928 208.352C9.928 207.179 10.1413 206.16 10.568 205.296C10.9947 204.421 11.608 203.755 12.408 203.296C13.208 202.827 14.1467 202.592 15.224 202.592C15.928 202.592 16.5947 202.704 17.224 202.928C17.8533 203.141 18.4027 203.456 18.872 203.872C19.0747 204.032 19.176 204.245 19.176 204.512C19.176 204.704 19.1227 204.869 19.016 205.008C18.9093 205.136 18.7813 205.2 18.632 205.2C18.4507 205.2 18.2747 205.131 18.104 204.992C17.592 204.608 17.1227 204.341 16.696 204.192C16.28 204.032 15.8053 203.952 15.272 203.952C14.0987 203.952 13.1973 204.331 12.568 205.088C11.9387 205.845 11.624 206.933 11.624 208.352C11.624 209.781 11.9387 210.875 12.568 211.632C13.1973 212.389 14.0987 212.768 15.272 212.768C15.784 212.768 16.248 212.688 16.664 212.528C17.0907 212.368 17.5707 212.101 18.104 211.728C18.3173 211.589 18.4933 211.52 18.632 211.52C18.7813 211.52 18.9093 211.589 19.016 211.728C19.1227 211.856 19.176 212.016 19.176 212.208C19.176 212.475 19.0747 212.688 18.872 212.848C18.4027 213.264 17.8533 213.584 17.224 213.808C16.5947 214.021 15.928 214.128 15.224 214.128ZM21.7641 214.08C21.5295 214.08 21.3321 214.016 21.1721 213.888C21.0228 213.76 20.9481 213.568 20.9481 213.312V203.424C20.9481 203.168 21.0228 202.976 21.1721 202.848C21.3321 202.709 21.5295 202.64 21.7641 202.64C21.9988 202.64 22.1908 202.709 22.3401 202.848C22.4895 202.976 22.5641 203.168 22.5641 203.424V213.312C22.5641 213.568 22.4895 213.76 22.3401 213.888C22.1908 214.016 21.9988 214.08 21.7641 214.08ZM25.6391 214.08C25.4045 214.08 25.2071 214.016 25.0471 213.888C24.8978 213.76 24.8231 213.568 24.8231 213.312V206.816C24.8231 206.56 24.8978 206.368 25.0471 206.24C25.2071 206.101 25.4045 206.032 25.6391 206.032C25.8738 206.032 26.0658 206.101 26.2151 206.24C26.3645 206.368 26.4391 206.56 26.4391 206.816V213.312C26.4391 213.568 26.3645 213.76 26.2151 213.888C26.0658 214.016 25.8738 214.08 25.6391 214.08ZM25.6391 204.464C25.3298 204.464 25.0845 204.379 24.9031 204.208C24.7218 204.037 24.6311 203.813 24.6311 203.536C24.6311 203.259 24.7218 203.04 24.9031 202.88C25.0845 202.709 25.3298 202.624 25.6391 202.624C25.9378 202.624 26.1778 202.709 26.3591 202.88C26.5511 203.04 26.6471 203.259 26.6471 203.536C26.6471 203.813 26.5565 204.037 26.3751 204.208C26.1938 204.379 25.9485 204.464 25.6391 204.464ZM34.8101 212.032C34.9595 212.032 35.0821 212.091 35.1781 212.208C35.2741 212.325 35.3221 212.475 35.3221 212.656C35.3221 212.965 35.1301 213.227 34.7461 213.44C34.3728 213.653 33.9621 213.819 33.5141 213.936C33.0768 214.053 32.6555 214.112 32.2501 214.112C31.0128 214.112 30.0368 213.755 29.3221 213.04C28.6075 212.315 28.2501 211.328 28.2501 210.08C28.2501 209.28 28.4048 208.571 28.7141 207.952C29.0341 207.333 29.4768 206.853 30.0421 206.512C30.6181 206.171 31.2688 206 31.9941 206C33.0395 206 33.8661 206.336 34.4741 207.008C35.0821 207.68 35.3861 208.587 35.3861 209.728C35.3861 210.155 35.1941 210.368 34.8101 210.368H29.8661C29.9728 212.021 30.7675 212.848 32.2501 212.848C32.6448 212.848 32.9861 212.795 33.2741 212.688C33.5621 212.581 33.8661 212.443 34.1861 212.272C34.2181 212.251 34.3035 212.208 34.4421 212.144C34.5915 212.069 34.7141 212.032 34.8101 212.032ZM32.0261 207.184C31.4075 207.184 30.9115 207.381 30.5381 207.776C30.1648 208.171 29.9408 208.725 29.8661 209.44H33.9941C33.9621 208.715 33.7755 208.16 33.4341 207.776C33.1035 207.381 32.6341 207.184 32.0261 207.184ZM41.3749 206C43.2415 206 44.1749 207.051 44.1749 209.152V213.312C44.1749 213.557 44.1002 213.749 43.9509 213.888C43.8122 214.016 43.6149 214.08 43.3589 214.08C43.1135 214.08 42.9162 214.011 42.7669 213.872C42.6282 213.733 42.5589 213.547 42.5589 213.312V209.232C42.5589 208.571 42.4255 208.085 42.1589 207.776C41.9029 207.467 41.4975 207.312 40.9429 207.312C40.2922 207.312 39.7695 207.515 39.3749 207.92C38.9802 208.325 38.7829 208.869 38.7829 209.552V213.312C38.7829 213.547 38.7082 213.733 38.5589 213.872C38.4202 214.011 38.2282 214.08 37.9829 214.08C37.7375 214.08 37.5402 214.011 37.3909 213.872C37.2415 213.733 37.1669 213.547 37.1669 213.312V206.8C37.1669 206.576 37.2415 206.395 37.3909 206.256C37.5509 206.107 37.7482 206.032 37.9829 206.032C38.2175 206.032 38.4042 206.101 38.5429 206.24C38.6815 206.379 38.7509 206.56 38.7509 206.784V207.44C39.0069 206.971 39.3642 206.613 39.8229 206.368C40.2815 206.123 40.7989 206 41.3749 206ZM50.2096 212.848C50.4443 212.869 50.6096 212.933 50.7056 213.04C50.8123 213.136 50.8656 213.275 50.8656 213.456C50.8656 213.669 50.7803 213.835 50.6096 213.952C50.4496 214.059 50.2096 214.101 49.8896 214.08L49.4576 214.048C48.5936 213.984 47.9483 213.723 47.5216 213.264C47.095 212.795 46.8816 212.107 46.8816 211.2V207.44H45.9216C45.4523 207.44 45.2176 207.232 45.2176 206.816C45.2176 206.624 45.2763 206.475 45.3936 206.368C45.5216 206.251 45.6976 206.192 45.9216 206.192H46.8816V204.544C46.8816 204.299 46.951 204.107 47.0896 203.968C47.239 203.829 47.4363 203.76 47.6816 203.76C47.927 203.76 48.1243 203.829 48.2736 203.968C48.423 204.107 48.4976 204.299 48.4976 204.544V206.192H50.0816C50.3056 206.192 50.4763 206.251 50.5936 206.368C50.7216 206.475 50.7856 206.624 50.7856 206.816C50.7856 207.019 50.7216 207.173 50.5936 207.28C50.4763 207.387 50.3056 207.44 50.0816 207.44H48.4976V211.312C48.4976 211.813 48.599 212.181 48.8016 212.416C49.015 212.651 49.335 212.784 49.7616 212.816L50.2096 212.848ZM58.1383 212.032C58.2876 212.032 58.4103 212.091 58.5063 212.208C58.6023 212.325 58.6503 212.475 58.6503 212.656C58.6503 212.965 58.4583 213.227 58.0743 213.44C57.7009 213.653 57.2903 213.819 56.8423 213.936C56.4049 214.053 55.9836 214.112 55.5783 214.112C54.3409 214.112 53.3649 213.755 52.6503 213.04C51.9356 212.315 51.5783 211.328 51.5783 210.08C51.5783 209.28 51.7329 208.571 52.0423 207.952C52.3623 207.333 52.8049 206.853 53.3703 206.512C53.9463 206.171 54.5969 206 55.3223 206C56.3676 206 57.1943 206.336 57.8023 207.008C58.4103 207.68 58.7143 208.587 58.7143 209.728C58.7143 210.155 58.5223 210.368 58.1383 210.368H53.1943C53.3009 212.021 54.0956 212.848 55.5783 212.848C55.9729 212.848 56.3143 212.795 56.6023 212.688C56.8903 212.581 57.1943 212.443 57.5143 212.272C57.5463 212.251 57.6316 212.208 57.7703 212.144C57.9196 212.069 58.0423 212.032 58.1383 212.032ZM55.3543 207.184C54.7356 207.184 54.2396 207.381 53.8663 207.776C53.4929 208.171 53.2689 208.725 53.1943 209.44H57.3223C57.2903 208.715 57.1036 208.16 56.7623 207.776C56.4316 207.381 55.9623 207.184 55.3543 207.184ZM63.215 214.112C62.127 214.112 61.2363 213.888 60.543 213.44C60.351 213.323 60.2123 213.2 60.127 213.072C60.0523 212.944 60.015 212.8 60.015 212.64C60.015 212.469 60.063 212.325 60.159 212.208C60.255 212.091 60.3777 212.032 60.527 212.032C60.6657 212.032 60.8843 212.117 61.183 212.288C61.503 212.459 61.8123 212.597 62.111 212.704C62.4203 212.811 62.8043 212.864 63.263 212.864C63.775 212.864 64.175 212.773 64.463 212.592C64.751 212.411 64.895 212.155 64.895 211.824C64.895 211.611 64.8363 211.44 64.719 211.312C64.6123 211.184 64.4203 211.072 64.143 210.976C63.8657 210.869 63.455 210.757 62.911 210.64C61.9723 210.437 61.295 210.165 60.879 209.824C60.4737 209.472 60.271 208.997 60.271 208.4C60.271 207.941 60.4043 207.531 60.671 207.168C60.9377 206.795 61.3057 206.507 61.775 206.304C62.2443 206.101 62.7777 206 63.375 206C63.8017 206 64.2177 206.059 64.623 206.176C65.0283 206.283 65.3857 206.443 65.695 206.656C66.047 206.891 66.223 207.163 66.223 207.472C66.223 207.643 66.1697 207.787 66.063 207.904C65.967 208.021 65.8497 208.08 65.711 208.08C65.615 208.08 65.519 208.059 65.423 208.016C65.327 207.973 65.199 207.904 65.039 207.808C64.751 207.637 64.479 207.504 64.223 207.408C63.9777 207.312 63.6683 207.264 63.295 207.264C62.847 207.264 62.4843 207.36 62.207 207.552C61.9403 207.744 61.807 208.005 61.807 208.336C61.807 208.635 61.9297 208.869 62.175 209.04C62.431 209.2 62.9057 209.355 63.599 209.504C64.3137 209.653 64.8737 209.824 65.279 210.016C65.6843 210.208 65.9723 210.448 66.143 210.736C66.3243 211.013 66.415 211.371 66.415 211.808C66.415 212.501 66.1217 213.061 65.535 213.488C64.959 213.904 64.1857 214.112 63.215 214.112Z" fill="#DA0175"/>
<path d="M30 330.5H47C49.2092 330.5 51 328.709 51 326.5V310L42.5 301.5H30C27.7909 301.5 26 303.291 26 305.5V326.5C26 328.709 27.7909 330.5 30 330.5Z" stroke="#343447" stroke-width="1.5" stroke-linecap="round" stroke-linejoin="round"/>
<path d="M50.5 310.5H42V302" stroke="#343447" stroke-width="1.5" stroke-linecap="round" stroke-linejoin="round"/>
<path d="M6.224 360.128C5.14667 360.128 4.208 359.899 3.408 359.44C2.608 358.971 1.99467 358.304 1.568 357.44C1.14133 356.565 0.928 355.536 0.928 354.352C0.928 353.179 1.14133 352.16 1.568 351.296C1.99467 350.421 2.608 349.755 3.408 349.296C4.208 348.827 5.14667 348.592 6.224 348.592C6.928 348.592 7.59467 348.704 8.224 348.928C8.85333 349.141 9.40267 349.456 9.872 349.872C10.0747 350.032 10.176 350.245 10.176 350.512C10.176 350.704 10.1227 350.869 10.016 351.008C9.90933 351.136 9.78133 351.2 9.632 351.2C9.45067 351.2 9.27467 351.131 9.104 350.992C8.592 350.608 8.12267 350.341 7.696 350.192C7.28 350.032 6.80533 349.952 6.272 349.952C5.09867 349.952 4.19733 350.331 3.568 351.088C2.93867 351.845 2.624 352.933 2.624 354.352C2.624 355.781 2.93867 356.875 3.568 357.632C4.19733 358.389 5.09867 358.768 6.272 358.768C6.784 358.768 7.248 358.688 7.664 358.528C8.09067 358.368 8.57067 358.101 9.104 357.728C9.31733 357.589 9.49333 357.52 9.632 357.52C9.78133 357.52 9.90933 357.589 10.016 357.728C10.1227 357.856 10.176 358.016 10.176 358.208C10.176 358.475 10.0747 358.688 9.872 358.848C9.40267 359.264 8.85333 359.584 8.224 359.808C7.59467 360.021 6.928 360.128 6.224 360.128ZM15.1839 360.112C14.4159 360.112 13.7385 359.947 13.1519 359.616C12.5759 359.285 12.1279 358.816 11.8079 358.208C11.4985 357.589 11.3439 356.875 11.3439 356.064C11.3439 355.243 11.4985 354.528 11.8079 353.92C12.1279 353.301 12.5759 352.827 13.1519 352.496C13.7385 352.165 14.4159 352 15.1839 352C15.9519 352 16.6239 352.165 17.1999 352.496C17.7865 352.827 18.2345 353.301 18.5439 353.92C18.8639 354.528 19.0239 355.243 19.0239 356.064C19.0239 356.875 18.8639 357.589 18.5439 358.208C18.2345 358.816 17.7865 359.285 17.1999 359.616C16.6239 359.947 15.9519 360.112 15.1839 360.112ZM15.1839 358.832C15.8985 358.832 16.4425 358.597 16.8159 358.128C17.1999 357.659 17.3919 356.971 17.3919 356.064C17.3919 355.168 17.1999 354.485 16.8159 354.016C16.4319 353.536 15.8879 353.296 15.1839 353.296C14.4799 353.296 13.9359 353.536 13.5519 354.016C13.1679 354.485 12.9759 355.168 12.9759 356.064C12.9759 356.971 13.1625 357.659 13.5359 358.128C13.9199 358.597 14.4692 358.832 15.1839 358.832ZM25.0151 352C25.6978 352 26.3005 352.165 26.8231 352.496C27.3458 352.827 27.7511 353.296 28.0391 353.904C28.3378 354.512 28.4871 355.221 28.4871 356.032C28.4871 356.832 28.3378 357.541 28.0391 358.16C27.7511 358.779 27.3405 359.259 26.8071 359.6C26.2845 359.941 25.6871 360.112 25.0151 360.112C24.4285 360.112 23.9111 359.989 23.4631 359.744C23.0151 359.488 22.6738 359.125 22.4391 358.656V359.296C22.4391 359.531 22.3645 359.723 22.2151 359.872C22.0765 360.011 21.8845 360.08 21.6391 360.08C21.3938 360.08 21.1965 360.011 21.0471 359.872C20.8978 359.723 20.8231 359.531 20.8231 359.296V349.408C20.8231 349.173 20.8978 348.987 21.0471 348.848C21.2071 348.709 21.4098 348.64 21.6551 348.64C21.8898 348.64 22.0765 348.709 22.2151 348.848C22.3645 348.976 22.4391 349.152 22.4391 349.376V353.472C22.6738 353.003 23.0151 352.64 23.4631 352.384C23.9111 352.128 24.4285 352 25.0151 352ZM24.6311 358.832C25.3245 358.832 25.8631 358.587 26.2471 358.096C26.6418 357.605 26.8391 356.917 26.8391 356.032C26.8391 355.157 26.6471 354.485 26.2631 354.016C25.8791 353.536 25.3351 353.296 24.6311 353.296C23.9271 353.296 23.3831 353.536 22.9991 354.016C22.6258 354.496 22.4391 355.179 22.4391 356.064C22.4391 356.949 22.6258 357.632 22.9991 358.112C23.3831 358.592 23.9271 358.832 24.6311 358.832ZM34.3723 352.032C34.8843 352 35.1403 352.219 35.1403 352.688C35.1403 352.923 35.0816 353.099 34.9643 353.216C34.8469 353.333 34.6443 353.403 34.3563 353.424L33.8763 353.472C33.2043 353.536 32.7029 353.771 32.3723 354.176C32.0523 354.581 31.8923 355.072 31.8923 355.648V359.312C31.8923 359.568 31.8176 359.76 31.6683 359.888C31.5189 360.016 31.3269 360.08 31.0923 360.08C30.8576 360.08 30.6603 360.016 30.5003 359.888C30.3509 359.76 30.2763 359.568 30.2763 359.312V352.8C30.2763 352.555 30.3509 352.368 30.5003 352.24C30.6603 352.101 30.8576 352.032 31.0923 352.032C31.3056 352.032 31.4816 352.101 31.6203 352.24C31.7696 352.368 31.8443 352.549 31.8443 352.784V353.552C32.0576 353.083 32.3669 352.725 32.7723 352.48C33.1776 352.235 33.6363 352.091 34.1483 352.048L34.3723 352.032ZM39.3688 352C40.4034 352 41.1714 352.261 41.6728 352.784C42.1848 353.307 42.4408 354.101 42.4408 355.168V359.312C42.4408 359.557 42.3714 359.749 42.2328 359.888C42.0941 360.016 41.9021 360.08 41.6568 360.08C41.4221 360.08 41.2354 360.011 41.0968 359.872C40.9581 359.733 40.8888 359.547 40.8888 359.312V358.72C40.6861 359.168 40.3821 359.515 39.9768 359.76C39.5821 359.995 39.1181 360.112 38.5848 360.112C38.0728 360.112 37.6034 360.011 37.1768 359.808C36.7608 359.595 36.4301 359.307 36.1848 358.944C35.9394 358.581 35.8168 358.171 35.8168 357.712C35.8061 357.136 35.9501 356.688 36.2488 356.368C36.5474 356.037 37.0328 355.803 37.7048 355.664C38.3768 355.515 39.3101 355.44 40.5048 355.44H40.8728V354.976C40.8728 354.379 40.7501 353.947 40.5048 353.68C40.2594 353.413 39.8648 353.28 39.3208 353.28C38.9474 353.28 38.5954 353.328 38.2648 353.424C37.9341 353.52 37.5714 353.659 37.1768 353.84C36.8888 354 36.6861 354.08 36.5688 354.08C36.4088 354.08 36.2754 354.021 36.1688 353.904C36.0728 353.787 36.0247 353.637 36.0247 353.456C36.0247 353.296 36.0674 353.157 36.1528 353.04C36.2488 352.912 36.3981 352.789 36.6008 352.672C36.9741 352.469 37.4114 352.309 37.9128 352.192C38.4141 352.064 38.8994 352 39.3688 352ZM38.8728 358.912C39.4594 358.912 39.9394 358.715 40.3128 358.32C40.6861 357.915 40.8728 357.397 40.8728 356.768V356.352H40.5848C39.7528 356.352 39.1128 356.389 38.6648 356.464C38.2168 356.539 37.8968 356.667 37.7048 356.848C37.5128 357.019 37.4168 357.269 37.4168 357.6C37.4168 357.984 37.5554 358.299 37.8328 358.544C38.1101 358.789 38.4568 358.912 38.8728 358.912ZM48.8593 352C50.7259 352 51.6593 353.051 51.6593 355.152V359.312C51.6593 359.557 51.5846 359.749 51.4353 359.888C51.2966 360.016 51.0993 360.08 50.8433 360.08C50.5979 360.08 50.4006 360.011 50.2513 359.872C50.1126 359.733 50.0433 359.547 50.0433 359.312V355.232C50.0433 354.571 49.9099 354.085 49.6433 353.776C49.3873 353.467 48.9819 353.312 48.4273 353.312C47.7766 353.312 47.2539 353.515 46.8593 353.92C46.4646 354.325 46.2673 354.869 46.2673 355.552V359.312C46.2673 359.547 46.1926 359.733 46.0433 359.872C45.9046 360.011 45.7126 360.08 45.4673 360.08C45.2219 360.08 45.0246 360.011 44.8753 359.872C44.7259 359.733 44.6513 359.547 44.6513 359.312V352.8C44.6513 352.576 44.7259 352.395 44.8753 352.256C45.0353 352.107 45.2326 352.032 45.4673 352.032C45.7019 352.032 45.8886 352.101 46.0273 352.24C46.1659 352.379 46.2353 352.56 46.2353 352.784V353.44C46.4913 352.971 46.8486 352.613 47.3073 352.368C47.7659 352.123 48.2833 352 48.8593 352ZM59.646 358.016C59.7953 358.016 59.918 358.08 60.014 358.208C60.11 358.325 60.158 358.475 60.158 358.656C60.158 358.805 60.1153 358.944 60.03 359.072C59.9553 359.189 59.822 359.312 59.63 359.44C59.3527 359.621 59.0327 359.771 58.67 359.888C58.3073 360.005 57.9393 360.075 57.566 360.096L57.486 360.704C57.6353 360.672 57.7687 360.656 57.886 360.656C58.2167 360.656 58.494 360.752 58.718 360.944C58.9527 361.136 59.07 361.408 59.07 361.76C59.07 362.155 58.8993 362.475 58.558 362.72C58.2167 362.976 57.7313 363.104 57.102 363.104C56.686 363.104 56.318 363.045 55.998 362.928C55.806 362.853 55.71 362.72 55.71 362.528C55.71 362.4 55.7527 362.293 55.838 362.208C55.934 362.123 56.0567 362.101 56.206 362.144C56.526 362.229 56.8247 362.272 57.102 362.272C57.3793 362.272 57.5927 362.229 57.742 362.144C57.8913 362.059 57.966 361.931 57.966 361.76C57.966 361.632 57.9233 361.531 57.838 361.456C57.7633 361.392 57.6513 361.36 57.502 361.36C57.3953 361.36 57.2513 361.381 57.07 361.424C56.8887 361.467 56.7767 361.488 56.734 361.488C56.6487 361.488 56.5687 361.456 56.494 361.392C56.43 361.339 56.4033 361.264 56.414 361.168L56.542 360.064C55.582 359.915 54.8193 359.488 54.254 358.784C53.6993 358.08 53.422 357.184 53.422 356.096C53.422 355.285 53.582 354.571 53.902 353.952C54.2327 353.333 54.6913 352.853 55.278 352.512C55.8647 352.171 56.5367 352 57.294 352C57.6993 352 58.1047 352.059 58.51 352.176C58.926 352.293 59.294 352.453 59.614 352.656C59.9553 352.891 60.126 353.163 60.126 353.472C60.126 353.653 60.078 353.808 59.982 353.936C59.886 354.053 59.7633 354.112 59.614 354.112C59.518 354.112 59.422 354.091 59.326 354.048C59.23 353.995 59.1073 353.92 58.958 353.824C58.6913 353.653 58.4407 353.525 58.206 353.44C57.982 353.344 57.71 353.296 57.39 353.296C56.6647 353.296 56.0993 353.541 55.694 354.032C55.2993 354.523 55.102 355.205 55.102 356.08C55.102 356.955 55.2993 357.632 55.694 358.112C56.0887 358.581 56.6487 358.816 57.374 358.816C57.694 358.816 57.9767 358.768 58.222 358.672C58.4673 358.576 58.718 358.448 58.974 358.288C59.0913 358.213 59.2087 358.149 59.326 358.096C59.4433 358.043 59.55 358.016 59.646 358.016ZM64.8844 352C65.919 352 66.687 352.261 67.1884 352.784C67.7004 353.307 67.9564 354.101 67.9564 355.168V359.312C67.9564 359.557 67.887 359.749 67.7484 359.888C67.6097 360.016 67.4177 360.08 67.1724 360.08C66.9377 360.08 66.751 360.011 66.6124 359.872C66.4737 359.733 66.4044 359.547 66.4044 359.312V358.72C66.2017 359.168 65.8977 359.515 65.4924 359.76C65.0977 359.995 64.6337 360.112 64.1004 360.112C63.5884 360.112 63.119 360.011 62.6924 359.808C62.2764 359.595 61.9457 359.307 61.7004 358.944C61.455 358.581 61.3324 358.171 61.3324 357.712C61.3217 357.136 61.4657 356.688 61.7644 356.368C62.063 356.037 62.5484 355.803 63.2204 355.664C63.8924 355.515 64.8257 355.44 66.0204 355.44H66.3884V354.976C66.3884 354.379 66.2657 353.947 66.0204 353.68C65.775 353.413 65.3804 353.28 64.8364 353.28C64.463 353.28 64.111 353.328 63.7804 353.424C63.4497 353.52 63.087 353.659 62.6924 353.84C62.4044 354 62.2017 354.08 62.0844 354.08C61.9244 354.08 61.791 354.021 61.6844 353.904C61.5884 353.787 61.5404 353.637 61.5404 353.456C61.5404 353.296 61.583 353.157 61.6684 353.04C61.7644 352.912 61.9137 352.789 62.1164 352.672C62.4897 352.469 62.927 352.309 63.4284 352.192C63.9297 352.064 64.415 352 64.8844 352ZM64.3884 358.912C64.975 358.912 65.455 358.715 65.8284 358.32C66.2017 357.915 66.3884 357.397 66.3884 356.768V356.352H66.1004C65.2684 356.352 64.6284 356.389 64.1804 356.464C63.7324 356.539 63.4124 356.667 63.2204 356.848C63.0284 357.019 62.9324 357.269 62.9324 357.6C62.9324 357.984 63.071 358.299 63.3484 358.544C63.6257 358.789 63.9724 358.912 64.3884 358.912ZM72.8869 360.112C71.7989 360.112 70.9082 359.888 70.2149 359.44C70.0229 359.323 69.8842 359.2 69.7989 359.072C69.7242 358.944 69.6869 358.8 69.6869 358.64C69.6869 358.469 69.7349 358.325 69.8309 358.208C69.9269 358.091 70.0495 358.032 70.1989 358.032C70.3375 358.032 70.5562 358.117 70.8549 358.288C71.1749 358.459 71.4842 358.597 71.7829 358.704C72.0922 358.811 72.4762 358.864 72.9349 358.864C73.4469 358.864 73.8469 358.773 74.1349 358.592C74.4229 358.411 74.5669 358.155 74.5669 357.824C74.5669 357.611 74.5082 357.44 74.3909 357.312C74.2842 357.184 74.0922 357.072 73.8149 356.976C73.5375 356.869 73.1269 356.757 72.5829 356.64C71.6442 356.437 70.9669 356.165 70.5509 355.824C70.1455 355.472 69.9429 354.997 69.9429 354.4C69.9429 353.941 70.0762 353.531 70.3429 353.168C70.6095 352.795 70.9775 352.507 71.4469 352.304C71.9162 352.101 72.4495 352 73.0469 352C73.4735 352 73.8895 352.059 74.2949 352.176C74.7002 352.283 75.0575 352.443 75.3669 352.656C75.7189 352.891 75.8949 353.163 75.8949 353.472C75.8949 353.643 75.8415 353.787 75.7349 353.904C75.6389 354.021 75.5215 354.08 75.3829 354.08C75.2869 354.08 75.1909 354.059 75.0949 354.016C74.9989 353.973 74.8709 353.904 74.7109 353.808C74.4229 353.637 74.1509 353.504 73.8949 353.408C73.6495 353.312 73.3402 353.264 72.9669 353.264C72.5189 353.264 72.1562 353.36 71.8789 353.552C71.6122 353.744 71.4789 354.005 71.4789 354.336C71.4789 354.635 71.6015 354.869 71.8469 355.04C72.1029 355.2 72.5775 355.355 73.2709 355.504C73.9855 355.653 74.5455 355.824 74.9509 356.016C75.3562 356.208 75.6442 356.448 75.8149 356.736C75.9962 357.013 76.0869 357.371 76.0869 357.808C76.0869 358.501 75.7935 359.061 75.2069 359.488C74.6309 359.904 73.8575 360.112 72.8869 360.112Z" fill="#343447"/>
</svg>
